<svg width="107" height="24" fill="none" xmlns="http://www.w3.org/2000/svg"><path fill="url(#paint0_linear)" d="M0 0h107v24H0z"/><path d="M38.379 9.69c0 .93-.214 1.783-.642 2.56-.428.762-1.086 1.38-1.972 1.852-.887.472-1.987.708-3.302.708h-2.43v5.76H26.11V4.525h6.352c1.284 0 2.37.22 3.256.663.886.442 1.551 1.051 1.995 1.828.443.777.665 1.669.665 2.675zm-6.214 2.012c.749 0 1.307-.175 1.674-.526.367-.35.55-.845.55-1.485 0-.64-.183-1.136-.55-1.486-.367-.35-.925-.526-1.674-.526h-2.133v4.023h2.133zm12.176-8.046v16.915h-3.92V3.655h3.92zm2.062 10.514c0-1.31.245-2.46.734-3.45.504-.991 1.184-1.753 2.04-2.287.856-.533 1.812-.8 2.867-.8.902 0 1.689.183 2.362.549.687.366 1.215.846 1.582 1.44V7.816h3.92v12.755h-3.92v-1.806c-.383.594-.918 1.074-1.605 1.44-.673.366-1.46.548-2.362.548a5.27 5.27 0 01-2.843-.8c-.857-.548-1.537-1.318-2.041-2.308-.49-1.006-.734-2.164-.734-3.474zm9.585.023c0-.975-.276-1.744-.826-2.308a2.613 2.613 0 00-1.972-.846c-.78 0-1.444.282-1.995.846-.535.548-.802 1.31-.802 2.286 0 .975.267 1.752.802 2.331.55.564 1.216.846 1.995.846.78 0 1.437-.282 1.972-.846.55-.564.826-1.333.826-2.309zM70.541 7.68c1.499 0 2.69.487 3.578 1.462.901.96 1.352 2.286 1.352 3.977v7.451h-3.898v-6.925c0-.854-.221-1.516-.665-1.989-.443-.472-1.04-.708-1.788-.708-.75 0-1.345.236-1.789.708-.443.473-.665 1.135-.665 1.989v6.925h-3.92V7.816h3.92v1.692a4.05 4.05 0 011.605-1.326c.673-.335 1.43-.503 2.27-.503zm14.786 9.576v3.314h-1.995c-1.421 0-2.53-.342-3.325-1.028-.794-.701-1.192-1.836-1.192-3.406v-5.074h-1.56V7.816h1.56V4.708h3.921v3.108h2.568v3.246h-2.568v5.12c0 .38.092.655.275.823.184.167.49.251.918.251h1.398zm6.105-12.731V20.57h-3.92V4.525h3.92zM102.07 7.68c1.498 0 2.69.487 3.577 1.462.902.96 1.353 2.286 1.353 3.977v7.451h-3.898v-6.925c0-.854-.222-1.516-.665-1.989-.444-.472-1.04-.708-1.789-.708-.749 0-1.345.236-1.788.708-.444.473-.665 1.135-.665 1.989v6.925h-3.921V7.816h3.92v1.692A4.047 4.047 0 0199.8 8.182c.672-.335 1.429-.503 2.27-.503z" fill="#262626"/><path d="M9.172 0c2.345 1.336 3.915 3.344 4.71 5.58a10.347 10.347 0 00-4.71 4.56 10.347 10.347 0 00-4.71-4.56C5.257 3.344 6.827 1.336 9.172 0z" fill="#04BF94"/><path d="M0 5.714c5.066 0 9.172 4.094 9.172 9.143 0-5.05 4.106-9.143 9.172-9.143v9.143c0 5.05-4.107 9.143-9.172 9.143C4.106 24 0 19.907 0 14.857V5.714z" fill="#04BF94"/><defs><linearGradient id="paint0_linear" x1="53.5" y1="0" x2="53.5" y2="24" gradientUnits="userSpaceOnUse"><stop stop-color="#fff"/><stop offset="1" stop-color="#fff" stop-opacity="0"/></linearGradient></defs></svg>